# This file uses centimeters as units for non-parametric coordinates.

v -1.166667 -1.166667 1.166667
v 1.166667 -1.166667 1.166667
v -1.166667 1.166667 1.166667
v 1.166667 1.166667 1.166667
v -1.166667 1.166667 -1.166667
v 1.166667 1.166667 -1.166667
v -1.166667 -1.166667 -1.166667
v 1.166667 -1.166667 -1.166667
v 0.000000 0.000000 1.675470
v 0.000000 -1.312500 1.312500
v 1.312500 0.000000 1.312500
v 0.000000 1.312500 1.312500
v -1.312500 0.000000 1.312500
v 0.000000 1.675470 0.000000
v 1.312500 1.312500 0.000000
v 0.000000 1.312500 -1.312500
v -1.312500 1.312500 0.000000
v 0.000000 0.000000 -1.675470
v 1.312500 0.000000 -1.312500
v 0.000000 -1.312500 -1.312500
v -1.312500 0.000000 -1.312500
v 0.000000 -1.675470 0.000000
v 1.312500 -1.312500 0.000000
v -1.312500 -1.312500 0.000000
v 1.675470 0.000000 0.000000
v -1.675470 0.000000 0.000000
v -0.750000 -1.312500 1.312500
v 0.000000 -0.953545 1.907090
v -1.312500 1.312500 0.750000
v -0.953545 1.907090 0.000000
v -0.750000 1.312500 1.312500
v 0.000000 1.907090 0.953545
v -1.312500 0.750000 -1.312500
v -0.953545 0.000000 -1.907090
v -0.750000 1.312500 -1.312500
v 0.000000 0.953545 -1.907090
v -1.312500 -1.312500 -0.750000
v -0.953545 -1.907090 0.000000
v -0.750000 -1.312500 -1.312500
v 0.000000 -1.907090 -0.953545
v 1.312500 -0.750000 1.312500
v 1.907090 0.000000 0.953545
v 1.312500 -1.312500 0.750000
v 1.907090 -0.953545 0.000000
v -1.312500 -0.750000 -1.312500
v -1.907090 0.000000 -0.953545
v -1.907090 -0.953545 0.000000
v 0.750000 -1.312500 1.312500
v 0.953545 0.000000 1.907090
v 1.312500 0.750000 1.312500
v 0.953545 1.668704 1.668704
v 0.000000 0.953545 1.907090
v -1.312500 0.750000 1.312500
v 1.312500 1.312500 0.750000
v 0.953545 1.907090 0.000000
v 1.312500 1.312500 -0.750000
v 0.750000 1.312500 -1.312500
v 0.000000 1.907090 -0.953545
v -1.312500 1.312500 -0.750000
v 1.312500 0.750000 -1.312500
v 0.953545 0.000000 -1.907090
v 1.312500 -0.750000 -1.312500
v 0.750000 -1.312500 -1.312500
v 0.000000 -0.953545 -1.907090
v 1.312500 -1.312500 -0.750000
v 0.953545 -1.907090 0.000000
v 0.000000 -1.907090 0.953545
v -1.312500 -1.312500 0.750000
v 1.907090 0.000000 -0.953545
v 1.907090 0.953545 0.000000
v -1.907090 0.000000 0.953545
v -1.907090 0.953545 0.000000
v -1.312500 -0.750000 1.312500
v -0.953545 0.000000 1.907090
v -0.750000 -0.750000 1.500000
v -0.750000 1.500000 0.750000
v -0.750000 0.750000 -1.500000
v -0.750000 -1.500000 -0.750000
v 1.500000 -0.750000 0.750000
v -1.500000 -0.750000 -0.750000
v 0.750000 -0.750000 1.500000
v 0.750000 0.750000 1.500000
v -0.750000 0.750000 1.500000
v 0.750000 1.500000 0.750000
v 0.750000 1.500000 -0.750000
v -0.750000 1.500000 -0.750000
v 0.750000 0.750000 -1.500000
v 0.750000 -0.750000 -1.500000
v -0.750000 -0.750000 -1.500000
v 0.750000 -1.500000 -0.750000
v 0.750000 -1.500000 0.750000
v -0.750000 -1.500000 0.750000
v 1.500000 -0.750000 -0.750000
v 1.500000 0.750000 -0.750000
v 1.500000 0.750000 0.750000
v -1.500000 -0.750000 0.750000
v -1.500000 0.750000 0.750000
v -1.500000 0.750000 -0.750000
vt 0.375000 0.125000
vt 0.375000 0.062500
vt 0.437500 0.062500
vt 0.437500 0.125000
vt 0.375000 0.000000
vt 0.437500 0.000000
vt 0.500000 0.000000
vt 0.500000 0.062500
vt 0.500000 0.125000
vt 0.375000 0.375000
vt 0.375000 0.312500
vt 0.437500 0.312500
vt 0.437500 0.375000
vt 0.375000 0.250000
vt 0.437500 0.250000
vt 0.500000 0.250000
vt 0.500000 0.312500
vt 0.500000 0.375000
vt 0.375000 0.625000
vt 0.375000 0.562500
vt 0.437500 0.562500
vt 0.437500 0.625000
vt 0.375000 0.500000
vt 0.437500 0.500000
vt 0.500000 0.500000
vt 0.500000 0.562500
vt 0.500000 0.625000
vt 0.375000 0.875000
vt 0.375000 0.812500
vt 0.437500 0.812500
vt 0.437500 0.875000
vt 0.375000 0.750000
vt 0.437500 0.750000
vt 0.500000 0.750000
vt 0.500000 0.812500
vt 0.500000 0.875000
vt 0.625000 0.125000
vt 0.625000 0.062500
vt 0.687500 0.062500
vt 0.687500 0.125000
vt 0.625000 0.000000
vt 0.687500 0.000000
vt 0.750000 0.000000
vt 0.750000 0.062500
vt 0.750000 0.125000
vt 0.125000 0.125000
vt 0.125000 0.062500
vt 0.187500 0.062500
vt 0.187500 0.125000
vt 0.125000 0.000000
vt 0.187500 0.000000
vt 0.250000 0.000000
vt 0.250000 0.062500
vt 0.250000 0.125000
vt 0.562500 0.000000
vt 0.562500 0.062500
vt 0.562500 0.125000
vt 0.625000 0.187500
vt 0.562500 0.187500
vt 0.625000 0.250000
vt 0.562500 0.250000
vt 0.500000 0.187500
vt 0.437500 0.187500
vt 0.375000 0.187500
vt 0.562500 0.312500
vt 0.625000 0.312500
vt 0.625000 0.375000
vt 0.562500 0.375000
vt 0.625000 0.437500
vt 0.562500 0.437500
vt 0.625000 0.500000
vt 0.562500 0.500000
vt 0.500000 0.437500
vt 0.437500 0.437500
vt 0.375000 0.437500
vt 0.562500 0.562500
vt 0.625000 0.562500
vt 0.625000 0.625000
vt 0.562500 0.625000
vt 0.625000 0.687500
vt 0.562500 0.687500
vt 0.625000 0.750000
vt 0.562500 0.750000
vt 0.500000 0.687500
vt 0.437500 0.687500
vt 0.375000 0.687500
vt 0.562500 0.812500
vt 0.625000 0.812500
vt 0.625000 0.875000
vt 0.562500 0.875000
vt 0.625000 0.937500
vt 0.562500 0.937500
vt 0.625000 1.000000
vt 0.562500 1.000000
vt 0.500000 1.000000
vt 0.500000 0.937500
vt 0.437500 1.000000
vt 0.437500 0.937500
vt 0.375000 1.000000
vt 0.375000 0.937500
vt 0.812500 0.000000
vt 0.812500 0.062500
vt 0.875000 0.000000
vt 0.875000 0.062500
vt 0.875000 0.125000
vt 0.812500 0.125000
vt 0.875000 0.187500
vt 0.812500 0.187500
vt 0.875000 0.250000
vt 0.812500 0.250000
vt 0.750000 0.250000
vt 0.750000 0.187500
vt 0.687500 0.250000
vt 0.687500 0.187500
vt 0.312500 0.000000
vt 0.312500 0.062500
vt 0.312500 0.125000
vt 0.312500 0.187500
vt 0.312500 0.250000
vt 0.250000 0.250000
vt 0.250000 0.187500
vt 0.187500 0.250000
vt 0.187500 0.187500
vt 0.125000 0.250000
vt 0.125000 0.187500
vn -0.671639 -0.312732 0.671639
vn -0.314238 -0.314238 0.895829
vn -0.707107 0.000000 0.707107
vn -0.341352 0.000000 0.939936
vn -0.671639 -0.312732 0.671639
vn -0.577350 -0.577350 0.577350
vn -0.314238 -0.314238 0.895829
vn -0.312732 -0.671639 0.671639
vn -0.312732 -0.671639 0.671639
vn 0.000000 -0.707107 0.707107
vn -0.314238 -0.314238 0.895829
vn 0.000000 -0.341352 0.939936
vn -0.341352 0.000000 0.939936
vn -0.314238 -0.314238 0.895829
vn 0.000000 0.000000 1.000000
vn 0.000000 -0.341352 0.939936
vn -0.671639 0.671639 0.312732
vn -0.314238 0.895829 0.314238
vn -0.707107 0.707107 0.000000
vn -0.341352 0.939936 0.000000
vn -0.671639 0.671639 0.312732
vn -0.577350 0.577350 0.577350
vn -0.314238 0.895829 0.314238
vn -0.312732 0.671639 0.671639
vn -0.312732 0.671639 0.671639
vn -0.143492 0.699789 0.699789
vn -0.314238 0.895829 0.314238
vn -0.057181 0.961064 0.270346
vn -0.341352 0.939936 0.000000
vn -0.314238 0.895829 0.314238
vn 0.000000 1.000000 0.000000
vn -0.057181 0.961064 0.270346
vn -0.671639 0.312732 -0.671639
vn -0.314238 0.314238 -0.895829
vn -0.707107 0.000000 -0.707107
vn -0.341352 0.000000 -0.939936
vn -0.671639 0.312732 -0.671639
vn -0.577350 0.577350 -0.577350
vn -0.314238 0.314238 -0.895829
vn -0.312732 0.671639 -0.671639
vn -0.312732 0.671639 -0.671639
vn 0.000000 0.707107 -0.707107
vn -0.314238 0.314238 -0.895829
vn 0.000000 0.341352 -0.939936
vn -0.341352 0.000000 -0.939936
vn -0.314238 0.314238 -0.895829
vn 0.000000 0.000000 -1.000000
vn 0.000000 0.341352 -0.939936
vn -0.671639 -0.671639 -0.312732
vn -0.314238 -0.895829 -0.314238
vn -0.707107 -0.707107 0.000000
vn -0.341352 -0.939936 0.000000
vn -0.671639 -0.671639 -0.312732
vn -0.577350 -0.577350 -0.577350
vn -0.314238 -0.895829 -0.314238
vn -0.312732 -0.671639 -0.671639
vn -0.312732 -0.671639 -0.671639
vn 0.000000 -0.707107 -0.707107
vn -0.314238 -0.895829 -0.314238
vn 0.000000 -0.939936 -0.341352
vn -0.341352 -0.939936 0.000000
vn -0.314238 -0.895829 -0.314238
vn 0.000000 -1.000000 0.000000
vn 0.000000 -0.939936 -0.341352
vn 0.671639 -0.312732 0.671639
vn 0.895829 -0.314238 0.314238
vn 0.707107 0.000000 0.707107
vn 0.939936 -0.000000 0.341352
vn 0.671639 -0.312732 0.671639
vn 0.577350 -0.577350 0.577350
vn 0.895829 -0.314238 0.314238
vn 0.671639 -0.671639 0.312732
vn 0.671639 -0.671639 0.312732
vn 0.707107 -0.707107 0.000000
vn 0.895829 -0.314238 0.314238
vn 0.939936 -0.341352 0.000000
vn 0.939936 -0.000000 0.341352
vn 0.895829 -0.314238 0.314238
vn 1.000000 0.000000 0.000000
vn 0.939936 -0.341352 0.000000
vn -0.671639 -0.312732 -0.671639
vn -0.895829 -0.314238 -0.314238
vn -0.707107 0.000000 -0.707107
vn -0.939936 0.000000 -0.341352
vn -0.671639 -0.312732 -0.671639
vn -0.577350 -0.577350 -0.577350
vn -0.895829 -0.314238 -0.314238
vn -0.671639 -0.671639 -0.312732
vn -0.671639 -0.671639 -0.312732
vn -0.707107 -0.707107 0.000000
vn -0.895829 -0.314238 -0.314238
vn -0.939936 -0.341352 0.000000
vn -0.939936 0.000000 -0.341352
vn -0.895829 -0.314238 -0.314238
vn -1.000000 0.000000 0.000000
vn -0.939936 -0.341352 0.000000
vn 0.312732 -0.671639 0.671639
vn 0.314238 -0.314238 0.895829
vn 0.000000 -0.707107 0.707107
vn 0.000000 -0.341352 0.939936
vn 0.312732 -0.671639 0.671639
vn 0.577350 -0.577350 0.577350
vn 0.314238 -0.314238 0.895829
vn 0.671639 -0.312732 0.671639
vn 0.671639 -0.312732 0.671639
vn 0.707107 0.000000 0.707107
vn 0.314238 -0.314238 0.895829
vn 0.341352 0.000000 0.939936
vn 0.000000 -0.341352 0.939936
vn 0.314238 -0.314238 0.895829
vn 0.000000 0.000000 1.000000
vn 0.341352 0.000000 0.939936
vn 0.717770 0.231783 0.656569
vn 0.291509 0.187498 0.938012
vn 0.707107 0.000000 0.707107
vn 0.341352 0.000000 0.939936
vn 0.717770 0.231783 0.656569
vn 0.815466 0.409277 0.409277
vn 0.291509 0.187498 0.938012
vn 0.271470 0.680553 0.680553
vn 0.271470 0.680553 0.680553
vn -0.143492 0.699789 0.699789
vn 0.291509 0.187498 0.938012
vn -0.057181 0.270346 0.961064
vn 0.341352 0.000000 0.939936
vn 0.291509 0.187498 0.938012
vn 0.000000 0.000000 1.000000
vn -0.057181 0.270346 0.961064
vn -0.312732 0.671639 0.671639
vn -0.314238 0.314238 0.895829
vn -0.143492 0.699789 0.699789
vn -0.057181 0.270346 0.961064
vn -0.312732 0.671639 0.671639
vn -0.577350 0.577350 0.577350
vn -0.314238 0.314238 0.895829
vn -0.671639 0.312732 0.671639
vn -0.671639 0.312732 0.671639
vn -0.707107 0.000000 0.707107
vn -0.314238 0.314238 0.895829
vn -0.341352 0.000000 0.939936
vn -0.057181 0.270346 0.961064
vn -0.314238 0.314238 0.895829
vn 0.000000 0.000000 1.000000
vn -0.341352 0.000000 0.939936
vn 0.271470 0.680553 0.680553
vn 0.291509 0.938012 0.187498
vn -0.143492 0.699789 0.699789
vn -0.057181 0.961064 0.270346
vn 0.271470 0.680553 0.680553
vn 0.815466 0.409277 0.409277
vn 0.291509 0.938012 0.187498
vn 0.717770 0.656569 0.231783
vn 0.717770 0.656569 0.231783
vn 0.707107 0.707107 0.000000
vn 0.291509 0.938012 0.187498
vn 0.341352 0.939936 0.000000
vn -0.057181 0.961064 0.270346
vn 0.291509 0.938012 0.187498
vn 0.000000 1.000000 0.000000
vn 0.341352 0.939936 0.000000
vn 0.671639 0.671639 -0.312732
vn 0.314238 0.895829 -0.314238
vn 0.707107 0.707107 0.000000
vn 0.341352 0.939936 0.000000
vn 0.671639 0.671639 -0.312732
vn 0.577350 0.577350 -0.577350
vn 0.314238 0.895829 -0.314238
vn 0.312732 0.671639 -0.671639
vn 0.312732 0.671639 -0.671639
vn 0.000000 0.707107 -0.707107
vn 0.314238 0.895829 -0.314238
vn -0.000000 0.939936 -0.341352
vn 0.341352 0.939936 0.000000
vn 0.314238 0.895829 -0.314238
vn 0.000000 1.000000 0.000000
vn -0.000000 0.939936 -0.341352
vn -0.312732 0.671639 -0.671639
vn -0.314238 0.895829 -0.314238
vn 0.000000 0.707107 -0.707107
vn -0.000000 0.939936 -0.341352
vn -0.312732 0.671639 -0.671639
vn -0.577350 0.577350 -0.577350
vn -0.314238 0.895829 -0.314238
vn -0.671639 0.671639 -0.312732
vn -0.671639 0.671639 -0.312732
vn -0.707107 0.707107 0.000000
vn -0.314238 0.895829 -0.314238
vn -0.341352 0.939936 0.000000
vn -0.000000 0.939936 -0.341352
vn -0.314238 0.895829 -0.314238
vn 0.000000 1.000000 0.000000
vn -0.341352 0.939936 0.000000
vn 0.312732 0.671639 -0.671639
vn 0.314238 0.314238 -0.895829
vn 0.000000 0.707107 -0.707107
vn 0.000000 0.341352 -0.939936
vn 0.312732 0.671639 -0.671639
vn 0.577350 0.577350 -0.577350
vn 0.314238 0.314238 -0.895829
vn 0.671639 0.312732 -0.671639
vn 0.671639 0.312732 -0.671639
vn 0.707107 0.000000 -0.707107
vn 0.314238 0.314238 -0.895829
vn 0.341352 0.000000 -0.939936
vn 0.000000 0.341352 -0.939936
vn 0.314238 0.314238 -0.895829
vn 0.000000 0.000000 -1.000000
vn 0.341352 0.000000 -0.939936
vn 0.671639 -0.312732 -0.671639
vn 0.314238 -0.314238 -0.895829
vn 0.707107 0.000000 -0.707107
vn 0.341352 0.000000 -0.939936
vn 0.671639 -0.312732 -0.671639
vn 0.577350 -0.577350 -0.577350
vn 0.314238 -0.314238 -0.895829
vn 0.312732 -0.671639 -0.671639
vn 0.312732 -0.671639 -0.671639
vn 0.000000 -0.707107 -0.707107
vn 0.314238 -0.314238 -0.895829
vn 0.000000 -0.341352 -0.939936
vn 0.341352 0.000000 -0.939936
vn 0.314238 -0.314238 -0.895829
vn 0.000000 0.000000 -1.000000
vn 0.000000 -0.341352 -0.939936
vn -0.312732 -0.671639 -0.671639
vn -0.314238 -0.314238 -0.895829
vn 0.000000 -0.707107 -0.707107
vn 0.000000 -0.341352 -0.939936
vn -0.312732 -0.671639 -0.671639
vn -0.577350 -0.577350 -0.577350
vn -0.314238 -0.314238 -0.895829
vn -0.671639 -0.312732 -0.671639
vn -0.671639 -0.312732 -0.671639
vn -0.707107 0.000000 -0.707107
vn -0.314238 -0.314238 -0.895829
vn -0.341352 0.000000 -0.939936
vn 0.000000 -0.341352 -0.939936
vn -0.314238 -0.314238 -0.895829
vn 0.000000 0.000000 -1.000000
vn -0.341352 0.000000 -0.939936
vn 0.312732 -0.671639 -0.671639
vn 0.314238 -0.895829 -0.314238
vn 0.000000 -0.707107 -0.707107
vn 0.000000 -0.939936 -0.341352
vn 0.312732 -0.671639 -0.671639
vn 0.577350 -0.577350 -0.577350
vn 0.314238 -0.895829 -0.314238
vn 0.671639 -0.671639 -0.312732
vn 0.671639 -0.671639 -0.312732
vn 0.707107 -0.707107 0.000000
vn 0.314238 -0.895829 -0.314238
vn 0.341352 -0.939936 0.000000
vn 0.000000 -0.939936 -0.341352
vn 0.314238 -0.895829 -0.314238
vn 0.000000 -1.000000 0.000000
vn 0.341352 -0.939936 0.000000
vn 0.671639 -0.671639 0.312732
vn 0.314238 -0.895829 0.314238
vn 0.707107 -0.707107 0.000000
vn 0.341352 -0.939936 0.000000
vn 0.671639 -0.671639 0.312732
vn 0.577350 -0.577350 0.577350
vn 0.314238 -0.895829 0.314238
vn 0.312732 -0.671639 0.671639
vn 0.312732 -0.671639 0.671639
vn 0.000000 -0.707107 0.707107
vn 0.314238 -0.895829 0.314238
vn 0.000000 -0.939936 0.341352
vn 0.341352 -0.939936 0.000000
vn 0.314238 -0.895829 0.314238
vn 0.000000 -1.000000 0.000000
vn 0.000000 -0.939936 0.341352
vn -0.312732 -0.671639 0.671639
vn -0.314238 -0.895829 0.314238
vn 0.000000 -0.707107 0.707107
vn 0.000000 -0.939936 0.341352
vn -0.312732 -0.671639 0.671639
vn -0.577350 -0.577350 0.577350
vn -0.314238 -0.895829 0.314238
vn -0.671639 -0.671639 0.312732
vn -0.671639 -0.671639 0.312732
vn -0.707107 -0.707107 0.000000
vn -0.314238 -0.895829 0.314238
vn -0.341352 -0.939936 0.000000
vn 0.000000 -0.939936 0.341352
vn -0.314238 -0.895829 0.314238
vn 0.000000 -1.000000 0.000000
vn -0.341352 -0.939936 0.000000
vn 0.671639 -0.671639 -0.312732
vn 0.895829 -0.314238 -0.314238
vn 0.707107 -0.707107 0.000000
vn 0.939936 -0.341352 0.000000
vn 0.671639 -0.671639 -0.312732
vn 0.577350 -0.577350 -0.577350
vn 0.895829 -0.314238 -0.314238
vn 0.671639 -0.312732 -0.671639
vn 0.671639 -0.312732 -0.671639
vn 0.707107 0.000000 -0.707107
vn 0.895829 -0.314238 -0.314238
vn 0.939936 0.000000 -0.341352
vn 0.939936 -0.341352 0.000000
vn 0.895829 -0.314238 -0.314238
vn 1.000000 0.000000 0.000000
vn 0.939936 0.000000 -0.341352
vn 0.671639 0.312732 -0.671639
vn 0.895829 0.314238 -0.314238
vn 0.707107 0.000000 -0.707107
vn 0.939936 0.000000 -0.341352
vn 0.671639 0.312732 -0.671639
vn 0.577350 0.577350 -0.577350
vn 0.895829 0.314238 -0.314238
vn 0.671639 0.671639 -0.312732
vn 0.671639 0.671639 -0.312732
vn 0.707107 0.707107 0.000000
vn 0.895829 0.314238 -0.314238
vn 0.939936 0.341352 0.000000
vn 0.939936 0.000000 -0.341352
vn 0.895829 0.314238 -0.314238
vn 1.000000 0.000000 0.000000
vn 0.939936 0.341352 0.000000
vn 0.717770 0.656569 0.231783
vn 0.895829 0.314238 0.314238
vn 0.707107 0.707107 0.000000
vn 0.939936 0.341352 0.000000
vn 0.717770 0.656569 0.231783
vn 0.815466 0.409277 0.409277
vn 0.895829 0.314238 0.314238
vn 0.717770 0.231783 0.656569
vn 0.717770 0.231783 0.656569
vn 0.707107 0.000000 0.707107
vn 0.895829 0.314238 0.314238
vn 0.939936 -0.000000 0.341352
vn 0.939936 0.341352 0.000000
vn 0.895829 0.314238 0.314238
vn 1.000000 0.000000 0.000000
vn 0.939936 -0.000000 0.341352
vn -0.671639 -0.671639 0.312732
vn -0.895829 -0.314238 0.314238
vn -0.707107 -0.707107 0.000000
vn -0.939936 -0.341352 0.000000
vn -0.671639 -0.671639 0.312732
vn -0.577350 -0.577350 0.577350
vn -0.895829 -0.314238 0.314238
vn -0.671639 -0.312732 0.671639
vn -0.671639 -0.312732 0.671639
vn -0.707107 0.000000 0.707107
vn -0.895829 -0.314238 0.314238
vn -0.939936 0.000000 0.341352
vn -0.939936 -0.341352 0.000000
vn -0.895829 -0.314238 0.314238
vn -1.000000 0.000000 0.000000
vn -0.939936 0.000000 0.341352
vn -0.671639 0.312732 0.671639
vn -0.895829 0.314238 0.314238
vn -0.707107 0.000000 0.707107
vn -0.939936 0.000000 0.341352
vn -0.671639 0.312732 0.671639
vn -0.577350 0.577350 0.577350
vn -0.895829 0.314238 0.314238
vn -0.671639 0.671639 0.312732
vn -0.671639 0.671639 0.312732
vn -0.707107 0.707107 0.000000
vn -0.895829 0.314238 0.314238
vn -0.939936 0.341352 -0.000000
vn -0.939936 0.000000 0.341352
vn -0.895829 0.314238 0.314238
vn -1.000000 0.000000 0.000000
vn -0.939936 0.341352 -0.000000
vn -0.671639 0.671639 -0.312732
vn -0.895829 0.314238 -0.314238
vn -0.707107 0.707107 0.000000
vn -0.939936 0.341352 -0.000000
vn -0.671639 0.671639 -0.312732
vn -0.577350 0.577350 -0.577350
vn -0.895829 0.314238 -0.314238
vn -0.671639 0.312732 -0.671639
vn -0.671639 0.312732 -0.671639
vn -0.707107 0.000000 -0.707107
vn -0.895829 0.314238 -0.314238
vn -0.939936 0.000000 -0.341352
vn -0.939936 0.341352 -0.000000
vn -0.895829 0.314238 -0.314238
vn -1.000000 0.000000 0.000000
vn -0.939936 0.000000 -0.341352
f 73/2/1 75/3/2 13/1/3
f 13/1/3 75/3/2 74/4/4
f 73/2/5 1/5/6 75/3/7
f 75/3/7 1/5/6 27/6/8
f 27/6/9 10/7/10 75/3/11
f 75/3/11 10/7/10 28/8/12
f 74/4/13 75/3/14 9/9/15
f 9/9/15 75/3/14 28/8/16
f 29/11/17 76/12/18 17/10/19
f 17/10/19 76/12/18 30/13/20
f 29/11/21 3/14/22 76/12/23
f 76/12/23 3/14/22 31/15/24
f 31/15/25 12/16/26 76/12/27
f 76/12/27 12/16/26 32/17/28
f 30/13/29 76/12/30 14/18/31
f 14/18/31 76/12/30 32/17/32
f 33/20/33 77/21/34 21/19/35
f 21/19/35 77/21/34 34/22/36
f 33/20/37 5/23/38 77/21/39
f 77/21/39 5/23/38 35/24/40
f 35/24/41 16/25/42 77/21/43
f 77/21/43 16/25/42 36/26/44
f 34/22/45 77/21/46 18/27/47
f 18/27/47 77/21/46 36/26/48
f 37/29/49 78/30/50 24/28/51
f 24/28/51 78/30/50 38/31/52
f 37/29/53 7/32/54 78/30/55
f 78/30/55 7/32/54 39/33/56
f 39/33/57 20/34/58 78/30/59
f 78/30/59 20/34/58 40/35/60
f 38/31/61 78/30/62 22/36/63
f 22/36/63 78/30/62 40/35/64
f 41/38/65 79/39/66 11/37/67
f 11/37/67 79/39/66 42/40/68
f 41/38/69 2/41/70 79/39/71
f 79/39/71 2/41/70 43/42/72
f 43/42/73 23/43/74 79/39/75
f 79/39/75 23/43/74 44/44/76
f 42/40/77 79/39/78 25/45/79
f 25/45/79 79/39/78 44/44/80
f 45/47/81 80/48/82 21/46/83
f 21/46/83 80/48/82 46/49/84
f 45/47/85 7/50/86 80/48/87
f 80/48/87 7/50/86 37/51/88
f 37/51/89 24/52/90 80/48/91
f 80/48/91 24/52/90 47/53/92
f 46/49/93 80/48/94 26/54/95
f 26/54/95 80/48/94 47/53/96
f 48/55/97 81/56/98 10/7/99
f 10/7/99 81/56/98 28/8/100
f 48/55/101 2/41/102 81/56/103
f 81/56/103 2/41/102 41/38/104
f 41/38/105 11/37/106 81/56/107
f 81/56/107 11/37/106 49/57/108
f 28/8/109 81/56/110 9/9/111
f 9/9/111 81/56/110 49/57/112
f 50/58/113 82/59/114 11/37/115
f 11/37/115 82/59/114 49/57/116
f 50/58/117 4/60/118 82/59/119
f 82/59/119 4/60/118 51/61/120
f 51/61/121 12/16/122 82/59/123
f 82/59/123 12/16/122 52/62/124
f 49/57/125 82/59/126 9/9/127
f 9/9/127 82/59/126 52/62/128
f 31/15/129 83/63/130 12/16/131
f 12/16/131 83/63/130 52/62/132
f 31/15/133 3/14/134 83/63/135
f 83/63/135 3/14/134 53/64/136
f 53/64/137 13/1/138 83/63/139
f 83/63/139 13/1/138 74/4/140
f 52/62/141 83/63/142 9/9/143
f 9/9/143 83/63/142 74/4/144
f 51/61/145 84/65/146 12/16/147
f 12/16/147 84/65/146 32/17/148
f 51/61/149 4/60/150 84/65/151
f 84/65/151 4/60/150 54/66/152
f 54/66/153 15/67/154 84/65/155
f 84/65/155 15/67/154 55/68/156
f 32/17/157 84/65/158 14/18/159
f 14/18/159 84/65/158 55/68/160
f 56/69/161 85/70/162 15/67/163
f 15/67/163 85/70/162 55/68/164
f 56/69/165 6/71/166 85/70/167
f 85/70/167 6/71/166 57/72/168
f 57/72/169 16/25/170 85/70/171
f 85/70/171 16/25/170 58/73/172
f 55/68/173 85/70/174 14/18/175
f 14/18/175 85/70/174 58/73/176
f 35/24/177 86/74/178 16/25/179
f 16/25/179 86/74/178 58/73/180
f 35/24/181 5/23/182 86/74/183
f 86/74/183 5/23/182 59/75/184
f 59/75/185 17/10/186 86/74/187
f 86/74/187 17/10/186 30/13/188
f 58/73/189 86/74/190 14/18/191
f 14/18/191 86/74/190 30/13/192
f 57/72/193 87/76/194 16/25/195
f 16/25/195 87/76/194 36/26/196
f 57/72/197 6/71/198 87/76/199
f 87/76/199 6/71/198 60/77/200
f 60/77/201 19/78/202 87/76/203
f 87/76/203 19/78/202 61/79/204
f 36/26/205 87/76/206 18/27/207
f 18/27/207 87/76/206 61/79/208
f 62/80/209 88/81/210 19/78/211
f 19/78/211 88/81/210 61/79/212
f 62/80/213 8/82/214 88/81/215
f 88/81/215 8/82/214 63/83/216
f 63/83/217 20/34/218 88/81/219
f 88/81/219 20/34/218 64/84/220
f 61/79/221 88/81/222 18/27/223
f 18/27/223 88/81/222 64/84/224
f 39/33/225 89/85/226 20/34/227
f 20/34/227 89/85/226 64/84/228
f 39/33/229 7/32/230 89/85/231
f 89/85/231 7/32/230 45/86/232
f 45/86/233 21/19/234 89/85/235
f 89/85/235 21/19/234 34/22/236
f 64/84/237 89/85/238 18/27/239
f 18/27/239 89/85/238 34/22/240
f 63/83/241 90/87/242 20/34/243
f 20/34/243 90/87/242 40/35/244
f 63/83/245 8/82/246 90/87/247
f 90/87/247 8/82/246 65/88/248
f 65/88/249 23/89/250 90/87/251
f 90/87/251 23/89/250 66/90/252
f 40/35/253 90/87/254 22/36/255
f 22/36/255 90/87/254 66/90/256
f 43/91/257 91/92/258 23/89/259
f 23/89/259 91/92/258 66/90/260
f 43/91/261 2/93/262 91/92/263
f 91/92/263 2/93/262 48/94/264
f 48/94/265 10/95/266 91/92/267
f 91/92/267 10/95/266 67/96/268
f 66/90/269 91/92/270 22/36/271
f 22/36/271 91/92/270 67/96/272
f 27/97/273 92/98/274 10/95/275
f 10/95/275 92/98/274 67/96/276
f 27/97/277 1/99/278 92/98/279
f 92/98/279 1/99/278 68/100/280
f 68/100/281 24/28/282 92/98/283
f 92/98/283 24/28/282 38/31/284
f 67/96/285 92/98/286 22/36/287
f 22/36/287 92/98/286 38/31/288
f 65/101/289 93/102/290 23/43/291
f 23/43/291 93/102/290 44/44/292
f 65/101/293 8/103/294 93/102/295
f 93/102/295 8/103/294 62/104/296
f 62/104/297 19/105/298 93/102/299
f 93/102/299 19/105/298 69/106/300
f 44/44/301 93/102/302 25/45/303
f 25/45/303 93/102/302 69/106/304
f 60/107/305 94/108/306 19/105/307
f 19/105/307 94/108/306 69/106/308
f 60/107/309 6/109/310 94/108/311
f 94/108/311 6/109/310 56/110/312
f 56/110/313 15/111/314 94/108/315
f 94/108/315 15/111/314 70/112/316
f 69/106/317 94/108/318 25/45/319
f 25/45/319 94/108/318 70/112/320
f 54/113/321 95/114/322 15/111/323
f 15/111/323 95/114/322 70/112/324
f 54/113/325 4/60/326 95/114/327
f 95/114/327 4/60/326 50/58/328
f 50/58/329 11/37/330 95/114/331
f 95/114/331 11/37/330 42/40/332
f 70/112/333 95/114/334 25/45/335
f 25/45/335 95/114/334 42/40/336
f 68/115/337 96/116/338 24/52/339
f 24/52/339 96/116/338 47/53/340
f 68/115/341 1/5/342 96/116/343
f 96/116/343 1/5/342 73/2/344
f 73/2/345 13/1/346 96/116/347
f 96/116/347 13/1/346 71/117/348
f 47/53/349 96/116/350 26/54/351
f 26/54/351 96/116/350 71/117/352
f 53/64/353 97/118/354 13/1/355
f 13/1/355 97/118/354 71/117/356
f 53/64/357 3/14/358 97/118/359
f 97/118/359 3/14/358 29/119/360
f 29/119/361 17/120/362 97/118/363
f 97/118/363 17/120/362 72/121/364
f 71/117/365 97/118/366 26/54/367
f 26/54/367 97/118/366 72/121/368
f 59/122/369 98/123/370 17/120/371
f 17/120/371 98/123/370 72/121/372
f 59/122/373 5/124/374 98/123/375
f 98/123/375 5/124/374 33/125/376
f 33/125/377 21/46/378 98/123/379
f 98/123/379 21/46/378 46/49/380
f 72/121/381 98/123/382 26/54/383
f 26/54/383 98/123/382 46/49/384
