# This file uses centimeters as units for non-parametric coordinates.

v -1.166667 -1.166667 1.166667
v 1.166667 -1.166667 1.166667
v -1.166667 1.166667 1.166667
v 1.166667 1.166667 1.166667
v -1.166667 1.166667 -1.166667
v 1.166667 1.166667 -1.166667
v -1.166667 -1.166667 -1.166667
v 1.166667 -1.166667 -1.166667
v 0.000000 0.000000 1.675470
v 0.000000 -1.312500 1.312500
v 1.312500 0.000000 1.312500
v 0.000000 1.312500 1.312500
v -1.312500 0.000000 1.312500
v 0.000000 1.675470 0.000000
v 1.312500 1.312500 0.000000
v 0.000000 1.312500 -1.312500
v -1.312500 1.312500 0.000000
v 0.000000 0.000000 -1.675470
v 1.312500 0.000000 -1.312500
v 0.000000 -1.312500 -1.312500
v -1.312500 0.000000 -1.312500
v 0.000000 -1.675470 0.000000
v 1.312500 -1.312500 0.000000
v -1.312500 -1.312500 0.000000
v 1.675470 0.000000 0.000000
v -1.675470 0.000000 0.000000
v -0.750000 -1.312500 1.312500
v 0.000000 -0.953545 1.907090
v -1.312500 1.312500 0.750000
v -0.953545 1.907090 0.000000
v -0.750000 1.312500 1.312500
v 0.000000 1.907090 0.953545
v -1.312500 0.750000 -1.312500
v -0.953545 0.000000 -1.907090
v -0.750000 1.312500 -1.312500
v 0.000000 0.953545 -1.907090
v -1.312500 -1.312500 -0.750000
v -0.953545 -1.907090 0.000000
v -0.750000 -1.312500 -1.312500
v 0.000000 -1.907090 -0.953545
v 1.312500 -0.750000 1.312500
v 1.907090 0.000000 0.953545
v 1.312500 -1.312500 0.750000
v 1.907090 -0.953545 0.000000
v -1.312500 -0.750000 -1.312500
v -1.907090 0.000000 -0.953545
v -1.907090 -0.953545 0.000000
v 0.750000 -1.312500 1.312500
v 0.953545 0.000000 1.907090
v 1.312500 0.750000 1.312500
v 0.953545 1.668704 1.668704
v 0.000000 0.953545 1.907090
v -1.312500 0.750000 1.312500
v 1.312500 1.312500 0.750000
v 0.953545 1.907090 0.000000
v 1.312500 1.312500 -0.750000
v 0.750000 1.312500 -1.312500
v 0.000000 1.907090 -0.953545
v -1.312500 1.312500 -0.750000
v 1.312500 0.750000 -1.312500
v 0.953545 0.000000 -1.907090
v 1.312500 -0.750000 -1.312500
v 0.750000 -1.312500 -1.312500
v 0.000000 -0.953545 -1.907090
v 1.312500 -1.312500 -0.750000
v 0.953545 -1.907090 0.000000
v 0.000000 -1.907090 0.953545
v -1.312500 -1.312500 0.750000
v 1.907090 0.000000 -0.953545
v 1.907090 0.953545 0.000000
v -1.907090 0.000000 0.953545
v -1.907090 0.953545 0.000000
v -1.312500 -0.750000 1.312500
v -0.953545 0.000000 1.907090
v -0.750000 -0.750000 1.500000
v -0.750000 1.500000 0.750000
v -0.750000 0.750000 -1.500000
v -0.750000 -1.500000 -0.750000
v 1.500000 -0.750000 0.750000
v -1.500000 -0.750000 -0.750000
v 0.750000 -0.750000 1.500000
v 0.750000 0.750000 1.500000
v -0.750000 0.750000 1.500000
v 0.750000 1.500000 0.750000
v 0.750000 1.500000 -0.750000
v -0.750000 1.500000 -0.750000
v 0.750000 0.750000 -1.500000
v 0.750000 -0.750000 -1.500000
v -0.750000 -0.750000 -1.500000
v 0.750000 -1.500000 -0.750000
v 0.750000 -1.500000 0.750000
v -0.750000 -1.500000 0.750000
v 1.500000 -0.750000 -0.750000
v 1.500000 0.750000 -0.750000
v 1.500000 0.750000 0.750000
v -1.500000 -0.750000 0.750000
v -1.500000 0.750000 0.750000
v -1.500000 0.750000 -0.750000
vt 0.375000 0.125000
vt 0.375000 0.062500
vt 0.437500 0.062500
vt 0.437500 0.125000
vt 0.375000 0.062500
vt 0.375000 0.000000
vt 0.437500 0.000000
vt 0.437500 0.062500
vt 0.437500 0.062500
vt 0.437500 0.000000
vt 0.500000 0.000000
vt 0.500000 0.062500
vt 0.437500 0.125000
vt 0.437500 0.062500
vt 0.500000 0.062500
vt 0.500000 0.125000
vt 0.375000 0.375000
vt 0.375000 0.312500
vt 0.437500 0.312500
vt 0.437500 0.375000
vt 0.375000 0.312500
vt 0.375000 0.250000
vt 0.437500 0.250000
vt 0.437500 0.312500
vt 0.437500 0.312500
vt 0.437500 0.250000
vt 0.500000 0.250000
vt 0.500000 0.312500
vt 0.437500 0.375000
vt 0.437500 0.312500
vt 0.500000 0.312500
vt 0.500000 0.375000
vt 0.375000 0.625000
vt 0.375000 0.562500
vt 0.437500 0.562500
vt 0.437500 0.625000
vt 0.375000 0.562500
vt 0.375000 0.500000
vt 0.437500 0.500000
vt 0.437500 0.562500
vt 0.437500 0.562500
vt 0.437500 0.500000
vt 0.500000 0.500000
vt 0.500000 0.562500
vt 0.437500 0.625000
vt 0.437500 0.562500
vt 0.500000 0.562500
vt 0.500000 0.625000
vt 0.375000 0.875000
vt 0.375000 0.812500
vt 0.437500 0.812500
vt 0.437500 0.875000
vt 0.375000 0.812500
vt 0.375000 0.750000
vt 0.437500 0.750000
vt 0.437500 0.812500
vt 0.437500 0.812500
vt 0.437500 0.750000
vt 0.500000 0.750000
vt 0.500000 0.812500
vt 0.437500 0.875000
vt 0.437500 0.812500
vt 0.500000 0.812500
vt 0.500000 0.875000
vt 0.625000 0.125000
vt 0.625000 0.062500
vt 0.687500 0.062500
vt 0.687500 0.125000
vt 0.625000 0.062500
vt 0.625000 0.000000
vt 0.687500 0.000000
vt 0.687500 0.062500
vt 0.687500 0.062500
vt 0.687500 0.000000
vt 0.750000 0.000000
vt 0.750000 0.062500
vt 0.687500 0.125000
vt 0.687500 0.062500
vt 0.750000 0.062500
vt 0.750000 0.125000
vt 0.125000 0.125000
vt 0.125000 0.062500
vt 0.187500 0.062500
vt 0.187500 0.125000
vt 0.125000 0.062500
vt 0.125000 0.000000
vt 0.187500 0.000000
vt 0.187500 0.062500
vt 0.187500 0.062500
vt 0.187500 0.000000
vt 0.250000 0.000000
vt 0.250000 0.062500
vt 0.187500 0.125000
vt 0.187500 0.062500
vt 0.250000 0.062500
vt 0.250000 0.125000
vt 0.500000 0.000000
vt 0.562500 0.000000
vt 0.562500 0.062500
vt 0.500000 0.062500
vt 0.562500 0.000000
vt 0.625000 0.000000
vt 0.625000 0.062500
vt 0.562500 0.062500
vt 0.562500 0.062500
vt 0.625000 0.062500
vt 0.625000 0.125000
vt 0.562500 0.125000
vt 0.500000 0.062500
vt 0.562500 0.062500
vt 0.562500 0.125000
vt 0.500000 0.125000
vt 0.625000 0.125000
vt 0.625000 0.187500
vt 0.562500 0.187500
vt 0.562500 0.125000
vt 0.625000 0.187500
vt 0.625000 0.250000
vt 0.562500 0.250000
vt 0.562500 0.187500
vt 0.562500 0.187500
vt 0.562500 0.250000
vt 0.500000 0.250000
vt 0.500000 0.187500
vt 0.562500 0.125000
vt 0.562500 0.187500
vt 0.500000 0.187500
vt 0.500000 0.125000
vt 0.500000 0.250000
vt 0.437500 0.250000
vt 0.437500 0.187500
vt 0.500000 0.187500
vt 0.437500 0.250000
vt 0.375000 0.250000
vt 0.375000 0.187500
vt 0.437500 0.187500
vt 0.437500 0.187500
vt 0.375000 0.187500
vt 0.375000 0.125000
vt 0.437500 0.125000
vt 0.500000 0.187500
vt 0.437500 0.187500
vt 0.437500 0.125000
vt 0.500000 0.125000
vt 0.500000 0.250000
vt 0.562500 0.250000
vt 0.562500 0.312500
vt 0.500000 0.312500
vt 0.562500 0.250000
vt 0.625000 0.250000
vt 0.625000 0.312500
vt 0.562500 0.312500
vt 0.562500 0.312500
vt 0.625000 0.312500
vt 0.625000 0.375000
vt 0.562500 0.375000
vt 0.500000 0.312500
vt 0.562500 0.312500
vt 0.562500 0.375000
vt 0.500000 0.375000
vt 0.625000 0.375000
vt 0.625000 0.437500
vt 0.562500 0.437500
vt 0.562500 0.375000
vt 0.625000 0.437500
vt 0.625000 0.500000
vt 0.562500 0.500000
vt 0.562500 0.437500
vt 0.562500 0.437500
vt 0.562500 0.500000
vt 0.500000 0.500000
vt 0.500000 0.437500
vt 0.562500 0.375000
vt 0.562500 0.437500
vt 0.500000 0.437500
vt 0.500000 0.375000
vt 0.500000 0.500000
vt 0.437500 0.500000
vt 0.437500 0.437500
vt 0.500000 0.437500
vt 0.437500 0.500000
vt 0.375000 0.500000
vt 0.375000 0.437500
vt 0.437500 0.437500
vt 0.437500 0.437500
vt 0.375000 0.437500
vt 0.375000 0.375000
vt 0.437500 0.375000
vt 0.500000 0.437500
vt 0.437500 0.437500
vt 0.437500 0.375000
vt 0.500000 0.375000
vt 0.500000 0.500000
vt 0.562500 0.500000
vt 0.562500 0.562500
vt 0.500000 0.562500
vt 0.562500 0.500000
vt 0.625000 0.500000
vt 0.625000 0.562500
vt 0.562500 0.562500
vt 0.562500 0.562500
vt 0.625000 0.562500
vt 0.625000 0.625000
vt 0.562500 0.625000
vt 0.500000 0.562500
vt 0.562500 0.562500
vt 0.562500 0.625000
vt 0.500000 0.625000
vt 0.625000 0.625000
vt 0.625000 0.687500
vt 0.562500 0.687500
vt 0.562500 0.625000
vt 0.625000 0.687500
vt 0.625000 0.750000
vt 0.562500 0.750000
vt 0.562500 0.687500
vt 0.562500 0.687500
vt 0.562500 0.750000
vt 0.500000 0.750000
vt 0.500000 0.687500
vt 0.562500 0.625000
vt 0.562500 0.687500
vt 0.500000 0.687500
vt 0.500000 0.625000
vt 0.500000 0.750000
vt 0.437500 0.750000
vt 0.437500 0.687500
vt 0.500000 0.687500
vt 0.437500 0.750000
vt 0.375000 0.750000
vt 0.375000 0.687500
vt 0.437500 0.687500
vt 0.437500 0.687500
vt 0.375000 0.687500
vt 0.375000 0.625000
vt 0.437500 0.625000
vt 0.500000 0.687500
vt 0.437500 0.687500
vt 0.437500 0.625000
vt 0.500000 0.625000
vt 0.500000 0.750000
vt 0.562500 0.750000
vt 0.562500 0.812500
vt 0.500000 0.812500
vt 0.562500 0.750000
vt 0.625000 0.750000
vt 0.625000 0.812500
vt 0.562500 0.812500
vt 0.562500 0.812500
vt 0.625000 0.812500
vt 0.625000 0.875000
vt 0.562500 0.875000
vt 0.500000 0.812500
vt 0.562500 0.812500
vt 0.562500 0.875000
vt 0.500000 0.875000
vt 0.625000 0.875000
vt 0.625000 0.937500
vt 0.562500 0.937500
vt 0.562500 0.875000
vt 0.625000 0.937500
vt 0.625000 1.000000
vt 0.562500 1.000000
vt 0.562500 0.937500
vt 0.562500 0.937500
vt 0.562500 1.000000
vt 0.500000 1.000000
vt 0.500000 0.937500
vt 0.562500 0.875000
vt 0.562500 0.937500
vt 0.500000 0.937500
vt 0.500000 0.875000
vt 0.500000 1.000000
vt 0.437500 1.000000
vt 0.437500 0.937500
vt 0.500000 0.937500
vt 0.437500 1.000000
vt 0.375000 1.000000
vt 0.375000 0.937500
vt 0.437500 0.937500
vt 0.437500 0.937500
vt 0.375000 0.937500
vt 0.375000 0.875000
vt 0.437500 0.875000
vt 0.500000 0.937500
vt 0.437500 0.937500
vt 0.437500 0.875000
vt 0.500000 0.875000
vt 0.750000 0.000000
vt 0.812500 0.000000
vt 0.812500 0.062500
vt 0.750000 0.062500
vt 0.812500 0.000000
vt 0.875000 0.000000
vt 0.875000 0.062500
vt 0.812500 0.062500
vt 0.812500 0.062500
vt 0.875000 0.062500
vt 0.875000 0.125000
vt 0.812500 0.125000
vt 0.750000 0.062500
vt 0.812500 0.062500
vt 0.812500 0.125000
vt 0.750000 0.125000
vt 0.875000 0.125000
vt 0.875000 0.187500
vt 0.812500 0.187500
vt 0.812500 0.125000
vt 0.875000 0.187500
vt 0.875000 0.250000
vt 0.812500 0.250000
vt 0.812500 0.187500
vt 0.812500 0.187500
vt 0.812500 0.250000
vt 0.750000 0.250000
vt 0.750000 0.187500
vt 0.812500 0.125000
vt 0.812500 0.187500
vt 0.750000 0.187500
vt 0.750000 0.125000
vt 0.750000 0.250000
vt 0.687500 0.250000
vt 0.687500 0.187500
vt 0.750000 0.187500
vt 0.687500 0.250000
vt 0.625000 0.250000
vt 0.625000 0.187500
vt 0.687500 0.187500
vt 0.687500 0.187500
vt 0.625000 0.187500
vt 0.625000 0.125000
vt 0.687500 0.125000
vt 0.750000 0.187500
vt 0.687500 0.187500
vt 0.687500 0.125000
vt 0.750000 0.125000
vt 0.250000 0.000000
vt 0.312500 0.000000
vt 0.312500 0.062500
vt 0.250000 0.062500
vt 0.312500 0.000000
vt 0.375000 0.000000
vt 0.375000 0.062500
vt 0.312500 0.062500
vt 0.312500 0.062500
vt 0.375000 0.062500
vt 0.375000 0.125000
vt 0.312500 0.125000
vt 0.250000 0.062500
vt 0.312500 0.062500
vt 0.312500 0.125000
vt 0.250000 0.125000
vt 0.375000 0.125000
vt 0.375000 0.187500
vt 0.312500 0.187500
vt 0.312500 0.125000
vt 0.375000 0.187500
vt 0.375000 0.250000
vt 0.312500 0.250000
vt 0.312500 0.187500
vt 0.312500 0.187500
vt 0.312500 0.250000
vt 0.250000 0.250000
vt 0.250000 0.187500
vt 0.312500 0.125000
vt 0.312500 0.187500
vt 0.250000 0.187500
vt 0.250000 0.125000
vt 0.250000 0.250000
vt 0.187500 0.250000
vt 0.187500 0.187500
vt 0.250000 0.187500
vt 0.187500 0.250000
vt 0.125000 0.250000
vt 0.125000 0.187500
vt 0.187500 0.187500
vt 0.187500 0.187500
vt 0.125000 0.187500
vt 0.125000 0.125000
vt 0.187500 0.125000
vt 0.250000 0.187500
vt 0.187500 0.187500
vt 0.187500 0.125000
vt 0.250000 0.125000
vn -0.707107 -0.000000 0.707107
vn -0.671639 -0.312732 0.671639
vn -0.314238 -0.314238 0.895829
vn -0.341352 -0.000000 0.939936
vn -0.577350 -0.577350 0.577350
vn -0.312732 -0.671639 0.671639
vn 0.000000 -0.707107 0.707107
vn 0.000000 -0.341352 0.939936
vn 0.000000 0.000000 1.000000
vn -0.707107 0.707107 0.000000
vn -0.671639 0.671639 0.312732
vn -0.314238 0.895829 0.314238
vn -0.341352 0.939936 0.000000
vn -0.577350 0.577350 0.577350
vn -0.312732 0.671639 0.671639
vn -0.143492 0.699789 0.699789
vn -0.057181 0.961064 0.270346
vn 0.000000 1.000000 0.000000
vn -0.707107 0.000000 -0.707107
vn -0.671639 0.312732 -0.671639
vn -0.314238 0.314238 -0.895829
vn -0.341352 0.000000 -0.939936
vn -0.577350 0.577350 -0.577350
vn -0.312732 0.671639 -0.671639
vn 0.000000 0.707107 -0.707107
vn 0.000000 0.341352 -0.939936
vn 0.000000 0.000000 -1.000000
vn -0.707107 -0.707107 -0.000000
vn -0.671639 -0.671639 -0.312732
vn -0.314238 -0.895829 -0.314238
vn -0.341352 -0.939936 -0.000000
vn -0.577350 -0.577350 -0.577350
vn -0.312732 -0.671639 -0.671639
vn 0.000000 -0.707107 -0.707107
vn 0.000000 -0.939936 -0.341352
vn 0.000000 -1.000000 0.000000
vn 0.707107 0.000000 0.707107
vn 0.671639 -0.312732 0.671639
vn 0.895829 -0.314238 0.314238
vn 0.939936 -0.000000 0.341352
vn 0.577350 -0.577350 0.577350
vn 0.671639 -0.671639 0.312732
vn 0.707107 -0.707107 0.000000
vn 0.939936 -0.341352 -0.000000
vn 1.000000 0.000000 0.000000
vn -0.671639 -0.312732 -0.671639
vn -0.895829 -0.314238 -0.314238
vn -0.939936 -0.000000 -0.341352
vn -0.939936 -0.341352 0.000000
vn -1.000000 0.000000 0.000000
vn 0.312732 -0.671639 0.671639
vn 0.314238 -0.314238 0.895829
vn 0.341352 0.000000 0.939936
vn 0.717770 0.231783 0.656569
vn 0.291509 0.187498 0.938012
vn 0.815466 0.409277 0.409277
vn 0.271470 0.680553 0.680553
vn -0.057181 0.270346 0.961064
vn -0.314238 0.314238 0.895829
vn -0.671639 0.312732 0.671639
vn 0.291509 0.938012 0.187498
vn 0.717770 0.656569 0.231783
vn 0.707107 0.707107 0.000000
vn 0.341352 0.939936 0.000000
vn 0.671639 0.671639 -0.312732
vn 0.314238 0.895829 -0.314238
vn 0.577350 0.577350 -0.577350
vn 0.312732 0.671639 -0.671639
vn -0.000000 0.939936 -0.341352
vn -0.314238 0.895829 -0.314238
vn -0.671639 0.671639 -0.312732
vn 0.314238 0.314238 -0.895829
vn 0.671639 0.312732 -0.671639
vn 0.707107 -0.000000 -0.707107
vn 0.341352 -0.000000 -0.939936
vn 0.671639 -0.312732 -0.671639
vn 0.314238 -0.314238 -0.895829
vn 0.577350 -0.577350 -0.577350
vn 0.312732 -0.671639 -0.671639
vn -0.000000 -0.341352 -0.939936
vn -0.314238 -0.314238 -0.895829
vn 0.314238 -0.895829 -0.314238
vn 0.671639 -0.671639 -0.312732
vn 0.341352 -0.939936 -0.000000
vn 0.314238 -0.895829 0.314238
vn -0.000000 -0.939936 0.341352
vn -0.314238 -0.895829 0.314238
vn -0.671639 -0.671639 0.312732
vn 0.895829 -0.314238 -0.314238
vn 0.939936 -0.000000 -0.341352
vn 0.895829 0.314238 -0.314238
vn 0.939936 0.341352 0.000000
vn 0.895829 0.314238 0.314238
vn -0.895829 -0.314238 0.314238
vn -0.939936 -0.000000 0.341352
vn -0.895829 0.314238 0.314238
vn -0.939936 0.341352 -0.000000
vn -0.895829 0.314238 -0.314238
f 13/347/1 73/343/2 75/14/3 74/140/4
f 73/343/2 1/6/5 27/10/6 75/14/3
f 75/14/3 27/10/6 10/97/7 28/109/8
f 74/140/4 75/14/3 28/109/8 9/16/9
f 17/17/10 29/21/11 76/30/12 30/188/13
f 29/21/11 3/134/14 31/130/15 76/30/12
f 76/30/12 31/130/15 12/27/16 32/157/17
f 30/188/13 76/30/12 32/157/17 14/32/18
f 21/33/19 33/37/20 77/46/21 34/236/22
f 33/37/20 5/182/23 35/178/24 77/46/21
f 77/46/21 35/178/24 16/43/25 36/205/26
f 34/236/22 77/46/21 36/205/26 18/48/27
f 24/49/28 37/53/29 78/62/30 38/284/31
f 37/53/29 7/230/32 39/226/33 78/62/30
f 78/62/30 39/226/33 20/59/34 40/253/35
f 38/284/31 78/62/30 40/253/35 22/64/36
f 11/331/37 41/103/38 79/78/39 42/332/40
f 41/103/38 2/70/41 43/74/42 79/78/39
f 79/78/39 43/74/42 23/75/43 44/301/44
f 42/332/40 79/78/39 44/301/44 25/80/45
f 21/379/19 45/85/46 80/94/47 46/380/48
f 45/85/46 7/86/32 37/87/29 80/94/47
f 80/94/47 37/87/29 24/91/28 47/349/49
f 46/380/48 80/94/47 47/349/49 26/96/50
f 10/97/7 48/101/51 81/110/52 28/109/8
f 48/101/51 2/70/41 41/103/38 81/110/52
f 81/110/52 41/103/38 11/331/37 49/125/53
f 28/109/8 81/110/52 49/125/53 9/16/9
f 11/331/37 50/327/54 82/126/55 49/125/53
f 50/327/54 4/118/56 51/146/57 82/126/55
f 82/126/55 51/146/57 12/27/16 52/141/58
f 49/125/53 82/126/55 52/141/58 9/16/9
f 12/27/16 31/130/15 83/142/59 52/141/58
f 31/130/15 3/134/14 53/354/60 83/142/59
f 83/142/59 53/354/60 13/347/1 74/140/4
f 52/141/58 83/142/59 74/140/4 9/16/9
f 12/27/16 51/146/57 84/158/61 32/157/17
f 51/146/57 4/118/56 54/154/62 84/158/61
f 84/158/61 54/154/62 15/161/63 55/173/64
f 32/157/17 84/158/61 55/173/64 14/32/18
f 15/161/63 56/165/65 85/174/66 55/173/64
f 56/165/65 6/166/67 57/194/68 85/174/66
f 85/174/66 57/194/68 16/43/25 58/189/69
f 55/173/64 85/174/66 58/189/69 14/32/18
f 16/43/25 35/178/24 86/190/70 58/189/69
f 35/178/24 5/182/23 59/186/71 86/190/70
f 86/190/70 59/186/71 17/17/10 30/188/13
f 58/189/69 86/190/70 30/188/13 14/32/18
f 16/43/25 57/194/68 87/206/72 36/205/26
f 57/194/68 6/166/67 60/202/73 87/206/72
f 87/206/72 60/202/73 19/209/74 61/221/75
f 36/205/26 87/206/72 61/221/75 18/48/27
f 19/209/74 62/213/76 88/222/77 61/221/75
f 62/213/76 8/214/78 63/242/79 88/222/77
f 88/222/77 63/242/79 20/59/34 64/237/80
f 61/221/75 88/222/77 64/237/80 18/48/27
f 20/59/34 39/226/33 89/238/81 64/237/80
f 39/226/33 7/230/32 45/231/46 89/238/81
f 89/238/81 45/231/46 21/33/19 34/236/22
f 64/237/80 89/238/81 34/236/22 18/48/27
f 20/59/34 63/242/79 90/254/82 40/253/35
f 63/242/79 8/214/78 65/250/83 90/254/82
f 90/254/82 65/250/83 23/257/43 66/269/84
f 40/253/35 90/254/82 66/269/84 22/64/36
f 23/257/43 43/258/42 91/270/85 66/269/84
f 43/258/42 2/262/41 48/263/51 91/270/85
f 91/270/85 48/263/51 10/267/7 67/285/86
f 66/269/84 91/270/85 67/285/86 22/64/36
f 10/267/7 27/274/6 92/286/87 67/285/86
f 27/274/6 1/278/5 68/282/88 92/286/87
f 92/286/87 68/282/88 24/49/28 38/284/31
f 67/285/86 92/286/87 38/284/31 22/64/36
f 23/75/43 65/290/83 93/302/89 44/301/44
f 65/290/83 8/294/78 62/295/76 93/302/89
f 93/302/89 62/295/76 19/299/74 69/317/90
f 44/301/44 93/302/89 69/317/90 25/80/45
f 19/299/74 60/306/73 94/318/91 69/317/90
f 60/306/73 6/310/67 56/311/65 94/318/91
f 94/318/91 56/311/65 15/315/63 70/333/92
f 69/317/90 94/318/91 70/333/92 25/80/45
f 15/315/63 54/322/62 95/334/93 70/333/92
f 54/322/62 4/118/56 50/327/54 95/334/93
f 95/334/93 50/327/54 11/331/37 42/332/40
f 70/333/92 95/334/93 42/332/40 25/80/45
f 24/91/28 68/338/88 96/350/94 47/349/49
f 68/338/88 1/6/5 73/343/2 96/350/94
f 96/350/94 73/343/2 13/347/1 71/365/95
f 47/349/49 96/350/94 71/365/95 26/96/50
f 13/347/1 53/354/60 97/366/96 71/365/95
f 53/354/60 3/134/14 29/359/11 97/366/96
f 97/366/96 29/359/11 17/363/10 72/381/97
f 71/365/95 97/366/96 72/381/97 26/96/50
f 17/363/10 59/370/71 98/382/98 72/381/97
f 59/370/71 5/374/23 33/375/20 98/382/98
f 98/382/98 33/375/20 21/379/19 46/380/48
f 72/381/97 98/382/98 46/380/48 26/96/50
